<svg width="32" height="32" viewBox="0 0 32 32" fill="none" xmlns="http://www.w3.org/2000/svg">
<rect width="32" height="32" rx="2" fill="white"/>
<path d="M4.5923 15.6923V9.80313H5.64152V10.3108H5.79382C5.88972 10.1472 6.0392 10.0034 6.24228 9.87928C6.44535 9.74954 6.73586 9.68467 7.11381 9.68467C7.45226 9.68467 7.76534 9.76928 8.05303 9.93851C8.34071 10.1021 8.57199 10.3447 8.74686 10.6662C8.92173 10.9877 9.00917 11.377 9.00917 11.8339V11.9693C9.00917 12.4262 8.92173 12.8154 8.74686 13.1369C8.57199 13.4585 8.34071 13.7038 8.05303 13.8731C7.76534 14.0367 7.45226 14.1185 7.11381 14.1185C6.85996 14.1185 6.64561 14.0874 6.47074 14.0254C6.30151 13.969 6.16331 13.8956 6.05613 13.8054C5.95459 13.7095 5.8728 13.6136 5.81075 13.5177H5.65844V15.6923H4.5923ZM6.79227 13.1877C7.12509 13.1877 7.39867 13.0833 7.61303 12.8746C7.83303 12.6603 7.94303 12.35 7.94303 11.9439V11.8593C7.94303 11.4531 7.83303 11.1457 7.61303 10.937C7.39303 10.7226 7.11945 10.6154 6.79227 10.6154C6.4651 10.6154 6.19151 10.7226 5.97151 10.937C5.75152 11.1457 5.64152 11.4531 5.64152 11.8593V11.9439C5.64152 12.35 5.75152 12.6603 5.97151 12.8746C6.19151 13.0833 6.4651 13.1877 6.79227 13.1877ZM9.98811 14V9.80313H11.0373V10.277H11.1896C11.2517 10.1077 11.3532 9.98364 11.4942 9.90467C11.6409 9.82569 11.8101 9.78621 12.0019 9.78621H12.5096V10.7339H11.985C11.7142 10.7339 11.4914 10.8072 11.3166 10.9539C11.1417 11.0949 11.0543 11.3149 11.0543 11.6139V14H9.98811ZM15.1911 14.1185C14.7737 14.1185 14.3985 14.0338 14.0657 13.8646C13.7329 13.6954 13.4706 13.45 13.2788 13.1285C13.087 12.8069 12.9911 12.4205 12.9911 11.9693V11.8339C12.9911 11.3826 13.087 10.9962 13.2788 10.6747C13.4706 10.3531 13.7329 10.1077 14.0657 9.93851C14.3985 9.76928 14.7737 9.68467 15.1911 9.68467C15.6085 9.68467 15.9837 9.76928 16.3165 9.93851C16.6493 10.1077 16.9116 10.3531 17.1034 10.6747C17.2952 10.9962 17.3911 11.3826 17.3911 11.8339V11.9693C17.3911 12.4205 17.2952 12.8069 17.1034 13.1285C16.9116 13.45 16.6493 13.6954 16.3165 13.8646C15.9837 14.0338 15.6085 14.1185 15.1911 14.1185ZM15.1911 13.1708C15.5183 13.1708 15.789 13.0664 16.0034 12.8577C16.2178 12.6434 16.3249 12.3387 16.3249 11.9439V11.8593C16.3249 11.4644 16.2178 11.1626 16.0034 10.9539C15.7947 10.7395 15.5239 10.6324 15.1911 10.6324C14.8639 10.6324 14.5932 10.7395 14.3788 10.9539C14.1644 11.1626 14.0573 11.4644 14.0573 11.8593V11.9439C14.0573 12.3387 14.1644 12.6434 14.3788 12.8577C14.5932 13.0664 14.8639 13.1708 15.1911 13.1708ZM18.1721 11.9185V11.7831C18.1721 11.3431 18.2595 10.968 18.4344 10.6577C18.6093 10.3418 18.8406 10.1021 19.1282 9.93851C19.4216 9.76928 19.7403 9.68467 20.0844 9.68467C20.468 9.68467 20.7585 9.75236 20.9559 9.88774C21.1533 10.0231 21.2972 10.1642 21.3874 10.3108H21.5398V9.80313H22.589V14.7446C22.589 15.0323 22.5044 15.2608 22.3351 15.43C22.1659 15.6049 21.9403 15.6923 21.6582 15.6923L18.849 15.6923V14.7615H21.2859C21.4439 14.7615 21.5228 14.6769 21.5228 14.5077V13.4162H21.3705C21.3141 13.5064 21.2351 13.5995 21.1336 13.6954C21.0321 13.7856 20.8967 13.8618 20.7275 13.9238C20.5582 13.9859 20.3439 14.0169 20.0844 14.0169C19.7403 14.0169 19.4216 13.9351 19.1282 13.7715C18.8406 13.6023 18.6093 13.3626 18.4344 13.0523C18.2595 12.7364 18.1721 12.3585 18.1721 11.9185ZM20.389 13.0862C20.7162 13.0862 20.9898 12.9818 21.2098 12.7731C21.4298 12.5644 21.5398 12.271 21.5398 11.8931V11.8085C21.5398 11.4249 21.4298 11.1316 21.2098 10.9285C20.9954 10.7198 20.7218 10.6154 20.389 10.6154C20.0618 10.6154 19.7882 10.7198 19.5682 10.9285C19.3482 11.1316 19.2382 11.4249 19.2382 11.8085V11.8931C19.2382 12.271 19.3482 12.5644 19.5682 12.7731C19.7882 12.9818 20.0618 13.0862 20.389 13.0862Z" fill="black"/>
<path d="M5.26075 23.4114C5.03511 23.4114 4.84332 23.3381 4.68538 23.1914C4.53307 23.0391 4.45692 22.8445 4.45692 22.6076C4.45692 22.3707 4.53307 22.1789 4.68538 22.0322C4.84332 21.8799 5.03511 21.8038 5.26075 21.8038C5.49203 21.8038 5.68382 21.8799 5.83613 22.0322C5.98844 22.1789 6.06459 22.3707 6.06459 22.6076C6.06459 22.8445 5.98844 23.0391 5.83613 23.1914C5.68382 23.3381 5.49203 23.4114 5.26075 23.4114ZM8.41561 23.4114C8.11664 23.4114 7.84869 23.3607 7.61177 23.2591C7.37485 23.1519 7.18588 22.9996 7.04486 22.8022C6.90948 22.5991 6.84178 22.3538 6.84178 22.0661C6.84178 21.7784 6.90948 21.5386 7.04486 21.3468C7.18588 21.1494 7.37768 21.0027 7.62024 20.9068C7.86844 20.8053 8.15049 20.7545 8.46638 20.7545H9.61713V20.5176C9.61713 20.3202 9.55508 20.1594 9.43098 20.0353C9.30688 19.9056 9.10945 19.8407 8.83868 19.8407C8.57356 19.8407 8.37612 19.9028 8.24638 20.0269C8.11664 20.1453 8.03203 20.3004 7.99254 20.4922L7.01101 20.1622C7.0787 19.9479 7.18588 19.7533 7.33255 19.5784C7.48485 19.3979 7.68511 19.254 7.93331 19.1469C8.18715 19.034 8.49458 18.9776 8.8556 18.9776C9.40842 18.9776 9.84559 19.1158 10.1671 19.3922C10.4887 19.6687 10.6494 20.0692 10.6494 20.5938V22.1591C10.6494 22.3284 10.7284 22.413 10.8863 22.413H11.2248V23.293H10.514C10.3053 23.293 10.1333 23.2422 9.9979 23.1407C9.86251 23.0391 9.79482 22.9037 9.79482 22.7345V22.7261H9.63406C9.61149 22.7937 9.56072 22.884 9.48175 22.9968C9.40278 23.104 9.27868 23.1999 9.10945 23.2845C8.94022 23.3691 8.70894 23.4114 8.41561 23.4114ZM8.60176 22.5484C8.90073 22.5484 9.14329 22.4666 9.32944 22.303C9.52124 22.1338 9.61713 21.9109 9.61713 21.6345V21.5499H8.54253C8.3451 21.5499 8.18997 21.5922 8.07715 21.6768C7.96433 21.7614 7.90792 21.8799 7.90792 22.0322C7.90792 22.1845 7.96715 22.3086 8.08561 22.4045C8.20407 22.5004 8.37612 22.5484 8.60176 22.5484ZM12.0043 23.293V19.0961H13.0705V23.293H12.0043ZM12.5374 18.6053C12.3456 18.6053 12.182 18.5433 12.0466 18.4192C11.9169 18.2951 11.852 18.1315 11.852 17.9284C11.852 17.7253 11.9169 17.5618 12.0466 17.4377C12.182 17.3136 12.3456 17.2515 12.5374 17.2515C12.7348 17.2515 12.8984 17.3136 13.0281 17.4377C13.1579 17.5618 13.2228 17.7253 13.2228 17.9284C13.2228 18.1315 13.1579 18.2951 13.0281 18.4192C12.8984 18.5433 12.7348 18.6053 12.5374 18.6053Z" fill="black"/>
<path d="M14.6321 23.5661V22.6745H15.6476C15.7962 22.6745 15.8705 22.5919 15.8705 22.4268V20.1647C15.8705 19.9775 15.9283 19.8206 16.0439 19.6941C16.165 19.5675 16.3218 19.5042 16.5145 19.5042H16.6466V19.3556H16.5145C16.3218 19.3556 16.165 19.2923 16.0439 19.1657C15.9283 19.0391 15.8705 18.8822 15.8705 18.6951V16.4329C15.8705 16.2678 15.7962 16.1852 15.6476 16.1852H14.6321V15.2936H16.0356C16.2833 15.2936 16.4842 15.3734 16.6383 15.533C16.7979 15.6871 16.8777 15.888 16.8777 16.1357V18.6951C16.8777 18.8547 16.952 18.9345 17.1007 18.9345H18.0501V19.9252H17.1007C16.952 19.9252 16.8777 20.005 16.8777 20.1647V22.724C16.8777 22.9717 16.7979 23.1726 16.6383 23.3267C16.4842 23.4863 16.2833 23.5661 16.0356 23.5661H14.6321Z" fill="black"/>
<path d="M27.8679 7.48464L27.8679 8.37629L26.8524 8.37629C26.7038 8.37629 26.6295 8.45885 26.6295 8.62397L26.6295 10.8861C26.6295 11.0733 26.5717 11.2301 26.4561 11.3567C26.335 11.4833 26.1782 11.5466 25.9855 11.5466L25.8534 11.5466L25.8534 11.6952L25.9855 11.6952C26.1782 11.6952 26.335 11.7585 26.4561 11.8851C26.5717 12.0117 26.6295 12.1686 26.6295 12.3557L26.6295 14.6179C26.6295 14.783 26.7038 14.8655 26.8524 14.8655L27.8679 14.8655L27.8679 15.7572L26.4644 15.7572C26.2167 15.7572 26.0158 15.6774 25.8617 15.5178C25.7021 15.3637 25.6223 15.1628 25.6223 14.9151L25.6223 12.3557C25.6223 12.1961 25.548 12.1163 25.3993 12.1163L24.4499 12.1163L24.4499 11.1256L25.3993 11.1256C25.548 11.1256 25.6223 11.0457 25.6223 10.8861L25.6223 8.32675C25.6223 8.07907 25.7021 7.87817 25.8617 7.72406C26.0158 7.56444 26.2167 7.48464 26.4644 7.48464L27.8679 7.48464Z" fill="black"/>
</svg>
