<svg width="256" height="256" viewBox="0 0 256 256" fill="none" xmlns="http://www.w3.org/2000/svg">
<rect width="256" height="256" rx="11" fill="white"/>
<path d="M44.35 128.429V85.177H52.0558V88.9056H53.1743C53.8786 87.7042 54.9765 86.6477 56.4679 85.7363C57.9594 84.7835 60.0929 84.307 62.8687 84.307C65.3544 84.307 67.6537 84.9285 69.7665 86.1713C71.8794 87.3727 73.578 89.1542 74.8623 91.5156C76.1466 93.8771 76.7887 96.7356 76.7887 100.091V101.086C76.7887 104.441 76.1466 107.3 74.8623 109.661C73.578 112.023 71.8794 113.825 69.7665 115.068C67.6537 116.269 65.3544 116.87 62.8687 116.87C61.0044 116.87 59.4301 116.642 58.1458 116.186C56.9029 115.772 55.8879 115.234 55.1008 114.571C54.3551 113.866 53.7543 113.162 53.2986 112.458H52.18V128.429H44.35ZM60.5072 110.034C62.9515 110.034 64.9608 109.268 66.5351 107.735C68.1508 106.161 68.9587 103.882 68.9587 100.899V100.278C68.9587 97.2949 68.1508 95.0371 66.5351 93.5042C64.9194 91.9299 62.9101 91.1428 60.5072 91.1428C58.1044 91.1428 56.0951 91.9299 54.4793 93.5042C52.8636 95.0371 52.0558 97.2949 52.0558 100.278V100.899C52.0558 103.882 52.8636 106.161 54.4793 107.735C56.0951 109.268 58.1044 110.034 60.5072 110.034ZM83.9784 116V85.177H91.6841V88.657H92.8027C93.2584 87.4142 94.0041 86.5027 95.0398 85.9227C96.117 85.3427 97.3599 85.0527 98.7684 85.0527H102.497V92.0128H98.6441C96.6556 92.0128 95.0191 92.5513 93.7348 93.6285C92.4506 94.6642 91.8084 96.2799 91.8084 98.4756V116H83.9784ZM122.191 116.87C119.125 116.87 116.37 116.249 113.926 115.006C111.481 113.763 109.555 111.961 108.146 109.599C106.738 107.238 106.033 104.4 106.033 101.086V100.091C106.033 96.7771 106.738 93.9392 108.146 91.5778C109.555 89.2163 111.481 87.4142 113.926 86.1713C116.37 84.9285 119.125 84.307 122.191 84.307C125.256 84.307 128.011 84.9285 130.456 86.1713C132.9 87.4142 134.826 89.2163 136.235 91.5778C137.643 93.9392 138.348 96.7771 138.348 100.091V101.086C138.348 104.4 137.643 107.238 136.235 109.599C134.826 111.961 132.9 113.763 130.456 115.006C128.011 116.249 125.256 116.87 122.191 116.87ZM122.191 109.91C124.593 109.91 126.582 109.144 128.156 107.611C129.731 106.036 130.518 103.799 130.518 100.899V100.278C130.518 97.3778 129.731 95.1613 128.156 93.6285C126.623 92.0542 124.635 91.267 122.191 91.267C119.788 91.267 117.799 92.0542 116.225 93.6285C114.651 95.1613 113.863 97.3778 113.863 100.278V100.899C113.863 103.799 114.651 106.036 116.225 107.611C117.799 109.144 119.788 109.91 122.191 109.91ZM144.084 100.713V99.7185C144.084 96.4871 144.726 93.7321 146.01 91.4535C147.295 89.1335 148.993 87.3727 151.106 86.1713C153.26 84.9285 155.601 84.307 158.128 84.307C160.945 84.307 163.079 84.8042 164.529 85.7985C165.979 86.7927 167.035 87.8285 167.698 88.9056H168.817V85.177H176.523V121.469C176.523 123.581 175.901 125.259 174.658 126.502C173.415 127.786 171.758 128.429 169.687 128.429H149.055V121.593H166.953C168.113 121.593 168.693 120.971 168.693 119.729V111.712H167.574C167.16 112.375 166.58 113.059 165.834 113.763C165.088 114.426 164.094 114.985 162.851 115.441C161.608 115.896 160.034 116.124 158.128 116.124C155.601 116.124 153.26 115.524 151.106 114.322C148.993 113.079 147.295 111.319 146.01 109.04C144.726 106.72 144.084 103.944 144.084 100.713ZM160.365 109.289C162.768 109.289 164.778 108.522 166.393 106.989C168.009 105.456 168.817 103.302 168.817 100.526V99.9049C168.817 97.0878 168.009 94.9335 166.393 93.4421C164.819 91.9092 162.81 91.1428 160.365 91.1428C157.962 91.1428 155.953 91.9092 154.337 93.4421C152.722 94.9335 151.914 97.0878 151.914 99.9049V100.526C151.914 103.302 152.722 105.456 154.337 106.989C155.953 108.522 157.962 109.289 160.365 109.289Z" fill="black"/>
<path d="M49.2593 185.128C47.6022 185.128 46.1936 184.589 45.0336 183.512C43.915 182.394 43.3557 180.964 43.3557 179.224C43.3557 177.484 43.915 176.076 45.0336 174.998C46.1936 173.88 47.6022 173.321 49.2593 173.321C50.9579 173.321 52.3665 173.88 53.4851 174.998C54.6036 176.076 55.1629 177.484 55.1629 179.224C55.1629 180.964 54.6036 182.394 53.4851 183.512C52.3665 184.589 50.9579 185.128 49.2593 185.128ZM72.4295 185.128C70.2337 185.128 68.2659 184.755 66.5259 184.009C64.7859 183.222 63.398 182.104 62.3623 180.654C61.368 179.162 60.8709 177.36 60.8709 175.247C60.8709 173.134 61.368 171.373 62.3623 169.965C63.398 168.515 64.8066 167.438 66.588 166.733C68.4109 165.988 70.4823 165.615 72.8023 165.615H81.2538V163.875C81.2538 162.425 80.7981 161.244 79.8866 160.333C78.9752 159.38 77.5252 158.903 75.5366 158.903C73.5895 158.903 72.1395 159.359 71.1866 160.271C70.2337 161.141 69.6123 162.28 69.3223 163.688L62.1137 161.265C62.6109 159.691 63.398 158.261 64.4752 156.977C65.5937 155.651 67.0644 154.595 68.8873 153.808C70.7516 152.979 73.0095 152.565 75.6609 152.565C79.7209 152.565 82.9317 153.58 85.2931 155.61C87.6545 157.64 88.8352 160.581 88.8352 164.434V175.931C88.8352 177.173 89.4153 177.795 90.5753 177.795H93.061V184.258H87.841C86.3081 184.258 85.0445 183.885 84.0502 183.139C83.0559 182.394 82.5588 181.399 82.5588 180.156V180.094H81.3781C81.2124 180.591 80.8395 181.254 80.2595 182.083C79.6795 182.87 78.7681 183.574 77.5252 184.196C76.2823 184.817 74.5838 185.128 72.4295 185.128ZM73.7966 178.789C75.9923 178.789 77.7738 178.189 79.1409 176.987C80.5495 175.744 81.2538 174.108 81.2538 172.078V171.456H73.3616C71.9116 171.456 70.7723 171.767 69.9437 172.388C69.1152 173.01 68.7009 173.88 68.7009 174.998C68.7009 176.117 69.1359 177.028 70.0059 177.733C70.8759 178.437 72.1395 178.789 73.7966 178.789ZM98.7859 184.258V153.435H106.616V184.258H98.7859ZM102.701 149.831C101.292 149.831 100.091 149.375 99.0966 148.463C98.1438 147.552 97.6673 146.351 97.6673 144.859C97.6673 143.368 98.1438 142.166 99.0966 141.255C100.091 140.343 101.292 139.888 102.701 139.888C104.151 139.888 105.352 140.343 106.305 141.255C107.258 142.166 107.735 143.368 107.735 144.859C107.735 146.351 107.258 147.552 106.305 148.463C105.352 149.375 104.151 149.831 102.701 149.831Z" fill="black"/>
<path d="M118.087 191.611V185.063H125.545C126.637 185.063 127.183 184.457 127.183 183.244V166.63C127.183 165.256 127.607 164.103 128.456 163.174C129.345 162.244 130.497 161.779 131.912 161.779H132.882V160.688H131.912C130.497 160.688 129.345 160.223 128.456 159.293C127.607 158.363 127.183 157.211 127.183 155.837V139.223C127.183 138.01 126.637 137.404 125.545 137.404H118.087V130.855H128.395C130.214 130.855 131.69 131.442 132.822 132.614C133.994 133.746 134.58 135.221 134.58 137.04V155.837C134.58 157.009 135.126 157.595 136.217 157.595H143.19V164.872H136.217C135.126 164.872 134.58 165.458 134.58 166.63V185.427C134.58 187.246 133.994 188.721 132.822 189.853C131.69 191.025 130.214 191.611 128.395 191.611H118.087Z" fill="black"/>
<path d="M215.295 65.6268L215.295 72.1754L207.837 72.1754C206.746 72.1754 206.2 72.7817 206.2 73.9944L206.2 90.6083C206.2 91.9827 205.776 93.1348 204.927 94.0645C204.038 94.9943 202.886 95.4591 201.471 95.4591L200.501 95.4591L200.501 96.5505L201.471 96.5505C202.886 96.5505 204.038 97.0154 204.927 97.9451C205.776 98.8749 206.2 100.027 206.2 101.401L206.2 118.015C206.2 119.228 206.746 119.834 207.837 119.834L215.295 119.834L215.295 126.383L204.988 126.383C203.169 126.383 201.693 125.797 200.561 124.624C199.389 123.493 198.803 122.017 198.803 120.198L198.803 101.401C198.803 100.229 198.257 99.6429 197.166 99.6429L190.193 99.6429L190.193 92.3668L197.166 92.3668C198.257 92.3668 198.803 91.7806 198.803 90.6083L198.803 71.8116C198.803 69.9925 199.389 68.5171 200.561 67.3852C201.693 66.213 203.169 65.6268 204.988 65.6268L215.295 65.6268Z" fill="black"/>
</svg>
